<?xml version="1.0" encoding="utf-8"?>
<!-- Generator: Adobe Illustrator 19.0.0, SVG Export Plug-In . SVG Version: 6.00 Build 0)  -->
<svg version="1.1" id="图层_1" xmlns="http://www.w3.org/2000/svg" xmlns:xlink="http://www.w3.org/1999/xlink" x="0px" y="0px"
	 viewBox="0 0 542.6 119.5" style="enable-background:new 0 0 542.6 119.5;" xml:space="preserve">
<style type="text/css">
	.st0{fill:#CA1E7A;}
	.st1{fill:#1D1E40;}
	.st2{fill:#CA1E7B;}
	.st3{fill:#811F58;}
	.st4{fill:#CD4190;}
	.st5{fill:#FFFFFF;}
</style>
<g id="XMLID_643_">
	<g id="XMLID_724_">
		<g id="XMLID_725_">
			<path id="XMLID_742_" class="st0" d="M156.4,48h10.7v38.7h19.8v9.9h-30.5V48z"/>
			<path id="XMLID_739_" class="st0" d="M188.8,72.3c0-3.9,0.7-7.4,2-10.6c1.3-3.2,3.1-5.8,5.5-8.1c2.3-2.2,5.1-3.9,8.3-5.1
				c3.2-1.2,6.7-1.8,10.5-1.8c3.8,0,7.3,0.6,10.5,1.8c3.2,1.2,6,2.9,8.3,5.1c2.3,2.2,4.2,4.9,5.5,8.1c1.3,3.2,2,6.7,2,10.6
				c0,3.9-0.7,7.4-2,10.6c-1.3,3.2-3.1,5.8-5.5,8.1c-2.3,2.2-5.1,3.9-8.3,5.1c-3.2,1.2-6.7,1.8-10.5,1.8c-3.8,0-7.3-0.6-10.5-1.8
				c-3.2-1.2-6-2.9-8.3-5.1c-2.3-2.2-4.2-4.9-5.5-8.1C189.5,79.7,188.8,76.2,188.8,72.3z M199.9,72.3c0,2.3,0.4,4.4,1.1,6.3
				c0.7,1.9,1.7,3.5,3.1,4.9c1.3,1.4,2.9,2.5,4.8,3.3c1.9,0.8,3.9,1.2,6.2,1.2s4.4-0.4,6.2-1.2c1.9-0.8,3.4-1.9,4.8-3.3
				c1.3-1.4,2.3-3,3.1-4.9c0.7-1.9,1.1-4,1.1-6.3c0-2.2-0.4-4.3-1.1-6.2c-0.7-1.9-1.7-3.6-3.1-5c-1.3-1.4-2.9-2.5-4.8-3.3
				c-1.9-0.8-3.9-1.2-6.2-1.2s-4.4,0.4-6.2,1.2c-1.9,0.8-3.4,1.9-4.8,3.3c-1.3,1.4-2.3,3.1-3.1,5C200.3,68,199.9,70.1,199.9,72.3z"
				/>
			<path id="XMLID_737_" class="st0" d="M247.1,48h14.5l20.7,33.8h0.1V48h10.7v48.6h-14L258,62h-0.1v34.6h-10.7V48z"/>
			<path id="XMLID_735_" class="st0" d="M345.7,93.2c-3.2,1.6-6.4,2.8-9.9,3.6c-3.4,0.7-6.9,1.1-10.5,1.1c-3.8,0-7.3-0.6-10.5-1.8
				c-3.2-1.2-6-2.9-8.3-5.1c-2.3-2.2-4.2-4.9-5.5-8.1c-1.3-3.2-2-6.7-2-10.6c0-3.9,0.7-7.4,2-10.6c1.3-3.2,3.1-5.8,5.5-8.1
				c2.3-2.2,5.1-3.9,8.3-5.1c3.2-1.2,6.7-1.8,10.5-1.8c3.9,0,7.5,0.5,10.7,1.4c3.3,0.9,6.1,2.6,8.6,4.8l-7.5,8.2
				c-1.5-1.5-3.1-2.7-4.9-3.4c-1.8-0.8-4.1-1.2-6.9-1.2c-2.3,0-4.4,0.4-6.2,1.2c-1.9,0.8-3.4,1.9-4.8,3.3c-1.3,1.4-2.3,3.1-3.1,5
				c-0.7,1.9-1.1,4-1.1,6.2c0,2.3,0.4,4.4,1.1,6.3c0.7,1.9,1.7,3.5,3.1,4.9c1.3,1.4,2.9,2.5,4.8,3.3c1.9,0.8,3.9,1.2,6.2,1.2
				c2.3,0,4.3-0.3,6-0.8c1.7-0.5,3-1.1,4-1.6v-7.9h-8.7v-9.9h19V93.2z"/>
			<path id="XMLID_733_" class="st1" d="M363.1,46h4.9v23h29.2V46h4.9v52.3h-4.9V73.5H368v24.8h-4.9V46z"/>
			<path id="XMLID_731_" class="st1" d="M433.3,51.3l-20,47h-5.1L431,46h5l22,52.3h-5.5L433.3,51.3z"/>
			<path id="XMLID_728_" class="st1" d="M465.5,88.6c1.3,2.2,2.9,3.9,5,4.9c2,1.1,4.4,1.6,7,1.6c1.6,0,3.1-0.2,4.6-0.7
				c1.4-0.5,2.7-1.2,3.7-2.1c1.1-0.9,1.9-2,2.5-3.2c0.6-1.3,0.9-2.7,0.9-4.2c0-1.8-0.4-3.3-1.1-4.5c-0.8-1.2-1.8-2.2-3.1-2.9
				c-1.3-0.8-2.7-1.4-4.3-2c-1.6-0.5-3.2-1.1-4.9-1.6c-1.7-0.5-3.3-1.2-4.9-1.8c-1.6-0.7-3-1.6-4.3-2.7c-1.3-1.1-2.3-2.5-3.1-4.2
				c-0.8-1.7-1.1-3.7-1.1-6.2c0-2.3,0.5-4.4,1.4-6.2c0.9-1.8,2.1-3.3,3.7-4.5c1.5-1.2,3.3-2.1,5.4-2.7c2-0.6,4.1-0.9,6.3-0.9
				c2.9,0,5.5,0.5,7.9,1.5c2.4,1,4.5,2.7,6.3,5.1l-4.2,3c-1.2-1.7-2.7-3-4.3-3.9c-1.7-0.9-3.6-1.3-5.9-1.3c-1.6,0-3.1,0.2-4.5,0.6
				c-1.4,0.4-2.7,1-3.7,1.8c-1.1,0.8-1.9,1.8-2.5,3.1c-0.6,1.2-1,2.7-1,4.4c0,2.6,0.7,4.6,2,6c1.3,1.4,3,2.5,5,3.3
				c2,0.8,4.2,1.5,6.5,2.1c2.3,0.6,4.5,1.4,6.5,2.5c2,1,3.7,2.5,5,4.3c1.3,1.8,2,4.4,2,7.6c0,2.4-0.4,4.5-1.3,6.3
				c-0.9,1.8-2.1,3.4-3.6,4.6c-1.5,1.3-3.2,2.2-5.2,2.8c-2,0.6-4,1-6.1,1c-3.4,0-6.6-0.6-9.5-1.8c-2.9-1.2-5.4-3.2-7.5-6.1
				L465.5,88.6z"/>
			<path id="XMLID_726_" class="st1" d="M503.6,46h4.9v23h29.2V46h4.9v52.3h-4.9V73.5h-29.2v24.8h-4.9V46z"/>
		</g>
	</g>
	<g id="XMLID_644_">
		<g id="XMLID_646_">
			<g id="XMLID_647_">
				<g id="XMLID_719_">
					<polygon id="XMLID_723_" class="st2" points="125.8,61.3 134.9,59 134.9,75.6 125.8,77.9 					"/>
					<g id="XMLID_721_">
						<polygon id="XMLID_722_" class="st3" points="111.5,53 111.5,69.6 125.8,77.9 125.8,61.3 						"/>
					</g>
					<polygon id="XMLID_720_" class="st4" points="125.8,61.3 134.9,59 120.5,50.8 111.5,53 					"/>
				</g>
				<g id="XMLID_711_">
					<g id="XMLID_716_">
						<g id="XMLID_717_">
							<polygon id="XMLID_718_" class="st3" points="46.3,53.7 46.3,73.2 32.2,64.9 32.2,45.6 							"/>
						</g>
					</g>
					<g id="XMLID_714_">
						<polygon id="XMLID_715_" class="st4" points="32.2,45.6 46.3,53.7 59.8,50.6 45.6,42.2 						"/>
					</g>
					<g id="XMLID_712_">
						<polygon id="XMLID_713_" class="st2" points="59.8,69.8 59.8,50.6 46.3,53.7 46.3,73.2 						"/>
					</g>
				</g>
				<g id="XMLID_703_">
					<g id="XMLID_708_">
						<g id="XMLID_709_">
							<polygon id="XMLID_710_" class="st3" points="32.3,29.9 32.3,45.7 18.2,37.4 18.2,21.6 							"/>
						</g>
					</g>
					<g id="XMLID_706_">
						<polygon id="XMLID_707_" class="st4" points="18.2,21.6 32.3,29.9 45.8,26.5 31.6,18.1 						"/>
					</g>
					<g id="XMLID_704_">
						<polygon id="XMLID_705_" class="st2" points="45.8,42.3 45.8,26.5 32.3,29.9 32.3,45.7 						"/>
					</g>
				</g>
				<g id="XMLID_696_">
					<g id="XMLID_701_">
						<polygon id="XMLID_702_" class="st3" points="40.4,59.7 54.7,68 54.7,92.8 40.4,84.6 						"/>
					</g>
					<polygon id="XMLID_700_" class="st1" points="54.7,68 52.4,66.7 52.4,91.5 54.7,92.8 					"/>
					<polygon id="XMLID_699_" class="st4" points="106.3,43.3 120.6,51.6 54.7,68 40.4,59.7 					"/>
					<polyline id="XMLID_698_" class="st1" points="102.4,56.1 100.1,54.7 52.4,66.7 54.7,68 					"/>
					<polygon id="XMLID_697_" class="st2" points="120.6,76.5 120.6,51.6 54.7,68 54.7,92.8 					"/>
				</g>
				<polygon id="XMLID_695_" class="st2" points="72.7,19.8 113.4,9.6 113.4,93.9 72.7,104.1 				"/>
				<g id="XMLID_692_">
					<g id="XMLID_693_">
						<path id="XMLID_694_" class="st3" d="M111.5,98.8"/>
					</g>
				</g>
				<g id="XMLID_689_">
					<g id="XMLID_690_">
						<polygon id="XMLID_691_" class="st3" points="114.1,104.1 114.1,112.4 96.9,102.3 96.9,94 						"/>
					</g>
				</g>
				<g id="XMLID_686_">
					<g id="XMLID_687_">
						<polygon id="XMLID_688_" class="st3" points="87,111.5 87,119.5 79.8,115.4 79.8,107.3 						"/>
					</g>
				</g>
				<g id="XMLID_684_">
					<polygon id="XMLID_685_" class="st4" points="79.8,107.3 87,111.5 100.6,107.6 93.2,103.9 					"/>
				</g>
				<g id="XMLID_682_">
					<polygon id="XMLID_683_" class="st2" points="100.6,115.8 100.6,107.6 87,111.5 87,119.5 					"/>
				</g>
				<g id="XMLID_678_">
					<polygon id="XMLID_681_" class="st1" points="120.5,96.5 79.8,107.4 79.8,57.1 79.8,57.1 120.5,46.8 					"/>
					<polygon id="XMLID_680_" class="st1" points="72.7,33.4 113.4,23.1 113.4,43.6 72.7,53.8 					"/>
					<polygon id="XMLID_679_" class="st3" points="79.8,57.1 79.8,115.4 72.7,111.2 72.7,53 					"/>
				</g>
				<g id="XMLID_671_">
					<g id="XMLID_675_">
						<polygon id="XMLID_677_" class="st5" points="99.5,61.8 99.5,96.5 94.8,97.7 94.8,63 						"/>
						<polygon id="XMLID_676_" class="st5" points="111.3,58.8 111.3,93.5 106.5,94.7 106.5,60 						"/>
					</g>
					<g id="XMLID_672_">
						<polygon id="XMLID_674_" class="st5" points="91.3,75.8 114.4,70 114.4,64.9 91.3,70.8 						"/>
						<polygon id="XMLID_673_" class="st5" points="91.3,91.8 114.4,85.9 114.4,80.9 91.3,86.7 						"/>
					</g>
				</g>
				<g id="XMLID_659_">
					<polygon id="XMLID_670_" class="st3" points="72.6,53 72.6,44.7 87,53 87,61.3 					"/>
					<g id="XMLID_661_">
						<polygon id="XMLID_669_" class="st1" points="113.4,34.4 127.7,42.7 87,53 72.6,44.7 						"/>
						<g id="XMLID_667_">
							<path id="XMLID_668_" class="st3" d="M72.6,44.7l0-10c0,0,0.7,10.4,9.7,15.6L72.6,44.7z"/>
						</g>
						<g id="XMLID_665_">
							<path id="XMLID_666_" class="st1" d="M113.4,34.4l0-12.7c0,0,1.1,13.4,14.3,21L113.4,34.4z"/>
						</g>
						<path id="XMLID_664_" class="st2" d="M87,36.4l0,8.3l37.6-9.5c1.8-0.5,3.1-2.1,3.1-4v-5.1L87,36.4z"/>
						<path id="XMLID_663_" class="st2" d="M87,53l0,8.3l37.6-9.5c1.8-0.5,3.1-2.1,3.1-4v-5.1L87,53z"/>
						<polygon id="XMLID_662_" class="st4" points="113.4,17.8 127.7,26.1 87,36.4 72.6,28.1 						"/>
					</g>
					<polygon id="XMLID_660_" class="st3" points="72.6,36.4 72.6,28.1 87,36.4 87,44.7 					"/>
				</g>
				<polygon id="XMLID_658_" class="st4" points="107.2,100.1 114.1,104.1 127.7,100.7 120.5,96.5 				"/>
				<polygon id="XMLID_657_" class="st2" points="127.7,108.9 127.7,100.6 114.1,104.1 114.1,112.4 				"/>
				<g id="XMLID_654_">
					<polygon id="XMLID_656_" class="st4" points="113.4,9.6 113.4,9.6 113.4,9.6 					"/>
					<path id="XMLID_655_" class="st4" d="M91,0.3L57.8,8.7v0c-0.9,0.2-1.6,0.7-2.1,1.3c3.7,2.2,16.9,9.8,16.9,9.8l0,0l40.7-10.3
						l-14-8.1C96.9,0,93.8-0.4,91,0.3z"/>
				</g>
				<path id="XMLID_653_" class="st3" d="M55.7,10.1c-0.6,0.7-1,1.6-1,2.6v5.1l0,0v83.1l17.9,10.3V19.8L55.7,10.1z"/>
				<path id="XMLID_652_" class="st5" d="M66.5,26.8c-0.2,1.9-1.7,2.9-3.4,2.4c-1.6-0.5-2.7-2.4-2.5-4.3c0.2-1.9,1.7-2.9,3.4-2.4
					C65.6,23,66.8,24.9,66.5,26.8z"/>
				<polygon id="XMLID_651_" class="st2" points="79.8,73.1 88.9,70.8 88.9,87.4 79.8,89.6 				"/>
				<g id="XMLID_649_">
					<polygon id="XMLID_650_" class="st3" points="65.5,64.8 65.5,81.4 79.8,89.6 79.8,73.1 					"/>
				</g>
				<polygon id="XMLID_648_" class="st4" points="79.8,73.1 88.9,70.8 74.5,62.5 65.5,64.8 				"/>
			</g>
		</g>
		<circle id="XMLID_645_" class="st3" cx="66.2" cy="27" r="2.6"/>
	</g>
</g>
</svg>
